<svg width="24" height="17" viewBox="0 0 24 17" fill="#073B4C" xmlns="http://www.w3.org/2000/svg">
  <path d="M12.4936 16.8273H10.5795C10.3408 16.8273 10.1352 16.6622 10.0844 16.4287L9.22377 12.5019C9.22129 12.4891 9.21864 12.4766 9.21616 12.4663C9.19331 12.3064 9.17295 12.1642 9.15276 12.0373C9.03093 11.2276 8.97001 10.8214 9.33056 10.3951C9.41945 10.291 9.4701 10.0449 9.48037 9.90272C9.4322 8.19693 8.16534 5.86174 7.31996 4.70191C6.08358 3.00374 7.06867 2.1535 7.1117 2.11792C8.92681 0.620365 10.7954 0.483341 11.5087 0.493404H11.5569C12.2652 0.480656 14.1387 0.620355 15.9514 2.11543C15.9946 2.15349 16.982 3.00392 15.7431 4.70187C14.9002 5.85929 13.6336 8.19716 13.5827 9.90267C13.5928 10.0448 13.6461 10.291 13.7325 10.3951C14.0931 10.8214 14.0322 11.2276 13.9103 12.0348C13.89 12.1618 13.8698 12.3039 13.8469 12.4638C13.8445 12.4766 13.8418 12.4891 13.8393 12.4994L12.9812 16.4262C12.938 16.6622 12.7324 16.8272 12.4936 16.8272L12.4936 16.8273ZM10.9856 15.8118H12.0822L12.8488 12.3013C12.8717 12.1466 12.892 12.0069 12.9097 11.8826C13.0087 11.2303 13.0139 11.1134 12.9606 11.0474C12.6179 10.6412 12.5747 10.0447 12.5696 9.93049V9.89756C12.6177 7.80595 14.1309 5.19172 14.9228 4.10252C15.4332 3.4019 15.3873 3.00352 15.2858 2.8815C13.7397 1.61484 12.1786 1.49812 11.5692 1.50574H11.4931C10.8864 1.49565 9.32505 1.61233 7.77645 2.8815C7.67746 3.00332 7.6293 3.40185 8.13948 4.10252C8.93404 5.1914 10.447 7.80586 10.4927 9.89756V9.93049C10.4876 10.0472 10.4446 10.6437 10.1017 11.0498C10.0484 11.1132 10.0536 11.2301 10.1526 11.885C10.1703 12.0093 10.1931 12.1465 10.2135 12.3013L10.9856 15.8118ZM7.77682 2.88689C7.77168 2.89202 7.76672 2.8945 7.76407 2.89698C7.76407 2.89716 7.7692 2.89202 7.77682 2.88689ZM15.294 2.88689C15.3016 2.8945 15.3068 2.89698 15.3068 2.89698C15.3016 2.89202 15.299 2.88954 15.294 2.88689Z" fill="#073B4C"/>
  <path d="M11.5368 7.78051C11.4302 7.78051 11.3362 7.71447 11.2981 7.61549C10.704 5.99859 9.93228 4.27513 9.5464 3.69381C9.50585 3.6329 9.49309 3.55677 9.51346 3.48559C9.53382 3.41459 9.58199 3.35616 9.64805 3.32305C10.4554 2.93724 11.2372 2.89404 11.5368 2.89404C11.8364 2.89404 12.6207 2.93459 13.4256 3.32305C13.4916 3.35599 13.5423 3.41441 13.5602 3.48559C13.5805 3.55659 13.5678 3.63273 13.5272 3.69381C13.0957 4.34362 12.296 6.19654 11.7755 7.61549C11.7374 7.71199 11.6409 7.78051 11.5368 7.78051H11.5368ZM10.1255 3.6685C10.529 4.37406 11.0876 5.65844 11.537 6.80843C11.9838 5.65862 12.5448 4.37424 12.9486 3.66601C12.3114 3.41972 11.7198 3.39954 11.537 3.39954C11.3541 3.40184 10.7651 3.4222 10.1255 3.66849V3.6685Z" fill="#073B4C"/>
  <path d="M2.91483 5.67593C2.86152 5.67593 2.8107 5.66831 2.7574 5.65061C1.22916 5.15305 0.564026 4.28763 0.277156 3.64544C-0.121462 2.75961 -0.0198152 1.87112 0.147706 1.48779C0.581738 0.487785 1.27238 0.152593 1.77495 0.0484775C2.86649 -0.179929 4.01153 0.44438 4.66143 1.04848L4.71721 1.10177C5.31892 1.66269 6.06783 2.36331 7.17461 2.49521C7.45387 2.52815 7.65183 2.78205 7.61891 3.06125C7.58597 3.34048 7.33204 3.53596 7.05523 3.50549C5.62084 3.33286 4.66122 2.43696 4.02655 1.8454L3.97076 1.79458C3.47831 1.33778 2.64566 0.908759 1.98298 1.04578C1.58702 1.12953 1.29255 1.40627 1.07912 1.8962C1.04105 1.98757 0.908942 2.5917 1.20857 3.24663C1.5082 3.89893 2.13523 4.38388 3.072 4.68843C3.33852 4.77466 3.48319 5.06149 3.39695 5.32813C3.32842 5.53883 3.12796 5.67587 2.91474 5.67587L2.91483 5.67593Z" fill="#073B4C"/>
  <path d="M4.43019 7.15583C4.2322 7.15583 4.03157 7.12786 3.83609 7.07208C3.38171 6.94265 2.99071 6.67352 2.73693 6.31567C2.46281 5.92986 2.37391 5.46525 2.49327 5.04402C2.73445 4.20638 3.72702 3.75452 4.70699 4.03373C5.68697 4.31543 6.29117 5.22429 6.05 6.06175C5.94587 6.42472 5.69459 6.73191 5.34166 6.9274C5.07249 7.07967 4.75514 7.15581 4.43023 7.15581L4.43019 7.15583ZM4.11799 4.96791C3.80313 4.96791 3.53146 5.10495 3.46809 5.32326C3.41992 5.49076 3.50616 5.64816 3.56194 5.72677C3.68129 5.89427 3.88175 6.02884 4.11283 6.09488C4.37686 6.17101 4.65099 6.15065 4.84651 6.04158C4.92779 5.9959 5.03191 5.91463 5.06999 5.78272C5.15375 5.48828 4.85678 5.13541 4.42258 5.01113C4.32359 4.98315 4.21947 4.96792 4.118 4.96792L4.11799 4.96791Z" fill="#073B4C"/>
  <path d="M20.1141 5.67587C19.9009 5.67587 19.7003 5.53882 19.6318 5.32564C19.5455 5.05917 19.6902 4.77234 19.9567 4.68595C20.8935 4.3814 21.5205 3.89662 21.8201 3.24414C22.1198 2.58922 21.9903 1.9851 21.9496 1.89372C21.7364 1.40378 21.4419 1.12724 21.0457 1.0433C20.3831 0.903776 19.5504 1.33527 19.0579 1.7921L19.0046 1.84291C18.37 2.43429 17.4104 3.33036 15.9735 3.5055C15.6967 3.53843 15.443 3.34049 15.4098 3.06126C15.3769 2.78204 15.5749 2.5308 15.8541 2.49522C16.9609 2.36065 17.71 1.6627 18.3115 1.09911L18.3673 1.04829C19.0172 0.444175 20.1647 -0.180293 21.2538 0.0482904C21.7565 0.152402 22.447 0.489874 22.881 1.4876C23.0461 1.86827 23.1502 2.75925 22.7516 3.64525C22.4647 4.28495 21.7996 5.15042 20.2713 5.64797C20.2182 5.66833 20.1649 5.67595 20.1141 5.67595L20.1141 5.67587Z" fill="#073B4C"/>
  <path d="M18.5978 7.1558C18.2729 7.1558 17.9555 7.07966 17.6864 6.92987C17.3334 6.7344 17.0822 6.42719 16.978 6.06422C16.7393 5.22902 17.3411 4.31791 18.321 4.0362C19.301 3.75698 20.296 4.20883 20.5348 5.04382C20.6541 5.46522 20.5652 5.92715 20.2911 6.31546C20.0372 6.6733 19.6463 6.94242 19.1919 7.07188C18.9938 7.12801 18.7933 7.15581 18.5979 7.15581L18.5978 7.1558ZM18.9176 4.96787C18.8161 4.96787 18.7094 4.9831 18.6003 5.01355C18.1663 5.13784 17.8691 5.4907 17.9529 5.78515C17.991 5.91706 18.0951 5.99832 18.1764 6.04153C18.3743 6.15059 18.6485 6.17096 18.91 6.09482C19.1411 6.02878 19.3441 5.89421 19.4634 5.72672C19.5192 5.6481 19.6056 5.4907 19.5573 5.3232C19.4965 5.10241 19.2298 4.96785 18.9177 4.96785L18.9176 4.96787Z" fill="#073B4C"/>
  <path d="M13.3777 11.9636H9.64066C9.50112 11.9636 9.38672 11.8494 9.38672 11.7097C9.38672 11.5702 9.50094 11.4558 9.64066 11.4558H13.3777C13.5172 11.4558 13.6316 11.57 13.6316 11.7097C13.6314 11.8494 13.5172 11.9636 13.3777 11.9636Z" fill="#073B4C"/>
  <path d="M13.0561 13.55H9.92581C9.78627 13.55 9.67188 13.4358 9.67188 13.2961C9.67188 13.1566 9.78609 13.0422 9.92581 13.0422H13.056C13.1955 13.0422 13.3099 13.1564 13.3099 13.2961C13.3099 13.4358 13.1982 13.55 13.0561 13.55H13.0561Z" fill="#073B4C"/>
  <path d="M12.7296 15.0803H10.5235C10.3839 15.0803 10.2695 14.9661 10.2695 14.8264C10.2695 14.6869 10.3837 14.5725 10.5235 14.5725H12.7296C12.8691 14.5725 12.9835 14.6867 12.9835 14.8264C12.9835 14.9661 12.8691 15.0803 12.7296 15.0803Z" fill="#073B4C"/>
</svg>
  