<svg width="140.09" height="98.38" xmlns="http://www.w3.org/2000/svg" xmlns:xlink="http://www.w3.org/1999/xlink" data-name="Layer 1">
 <defs>
  <linearGradient y2="9.02248" x2="16.23145" y1="-8.26405" x1="-15.81143" id="linear-gradient">
   <stop stop-color="#0098c5" offset="0"/>
   <stop stop-color="#069" offset="1"/>
  </linearGradient>
  <linearGradient xlink:href="#linear-gradient" y2="56.15" x2="73.09" y1="25.37" x1="38.77" id="linear-gradient-2"/>
  <linearGradient xlink:href="#linear-gradient" y2="43.03" x2="84.85" y1="12.26" x1="50.53" id="linear-gradient-3"/>
  <linearGradient xlink:href="#linear-gradient" y2="50.74" x2="77.94" y1="19.96" x1="43.62" id="linear-gradient-4"/>
  <linearGradient xlink:href="#linear-gradient" y2="46.57" x2="81.68" y1="15.8" x1="47.35" id="linear-gradient-5"/>
  <linearGradient xlink:href="#linear-gradient" y2="58.38" x2="71.09" y1="27.61" x1="36.76" id="linear-gradient-6"/>
  <linearGradient xlink:href="#linear-gradient" y2="59.64" x2="69.96" y1="28.86" x1="35.64" id="linear-gradient-7"/>
  <linearGradient xlink:href="#linear-gradient" y2="57.72" x2="71.68" y1="26.95" x1="37.35" id="linear-gradient-8"/>
  <linearGradient xlink:href="#linear-gradient" y2="59.08" x2="70.46" y1="28.3" x1="36.14" id="linear-gradient-9"/>
  <linearGradient xlink:href="#linear-gradient" y2="42.66" x2="85.19" y1="11.88" x1="50.86" id="linear-gradient-10"/>
  <linearGradient xlink:href="#linear-gradient" y2="43.44" x2="84.48" y1="12.66" x1="50.16" id="linear-gradient-11"/>
 </defs>
 <g>
  <title>Layer 1</title>
  <path id="svg_1" fill="#0098c5" d="m51.26,22.8l0,0.69c0.22,0 0.34,-0.15 0.34,-0.3s-0.1,-0.33 -0.34,-0.39z"/>
  <path id="svg_2" fill="#0098c5" d="m50.59,21.83a0.45,0.45 0 0 0 0.34,0.34l0,-0.7a0.37,0.37 0 0 0 -0.34,0.36z"/>
  <path id="svg_3" fill="#0098c5" d="m51.09,20.27a2.21,2.21 0 1 0 2.21,2.2a2.2,2.2 0 0 0 -2.21,-2.2zm0.17,3.73l0,0.32l-0.11,0a0.22,0.22 0 0 1 -0.22,-0.22l0,-0.1a0.88,0.88 0 0 1 -0.89,-0.87l0.36,0a0.21,0.21 0 0 1 0.18,0.13a0.4,0.4 0 0 0 0.35,0.27l0,-0.74c-0.4,-0.1 -0.89,-0.37 -0.89,-0.91s0.22,-0.76 0.89,-0.81l0,-0.34l0.07,0a0.22,0.22 0 0 1 0.23,0.22l0,0.05a0.87,0.87 0 0 1 0.87,0.87l-0.31,0a0.18,0.18 0 0 1 -0.18,-0.13a0.41,0.41 0 0 0 -0.38,-0.29l0,0.76c0.52,0.11 0.87,0.4 0.89,0.81c0.05,0.66 -0.33,0.9 -0.86,0.98z"/>
  <path id="svg_4" fill="#0098c5" d="m45.52,47.92l0,0.69c0.23,0 0.35,-0.15 0.35,-0.3a0.39,0.39 0 0 0 -0.35,-0.39z"/>
  <path id="svg_5" fill="#0098c5" d="m44.86,47c0,0.14 0.14,0.28 0.33,0.34l0,-0.7c-0.19,-0.01 -0.34,0.1 -0.33,0.36z"/>
  <path id="svg_6" fill="#0098c5" d="m45.36,45.39a2.21,2.21 0 1 0 2.21,2.2a2.2,2.2 0 0 0 -2.21,-2.2zm0.16,3.68l0,0.32l-0.1,0a0.22,0.22 0 0 1 -0.23,-0.22l0,-0.1a0.88,0.88 0 0 1 -0.88,-0.87l0.35,0a0.21,0.21 0 0 1 0.18,0.13a0.43,0.43 0 0 0 0.35,0.27l0,-0.74a1,1 0 0 1 -0.88,-0.91c0,-0.4 0.22,-0.76 0.88,-0.81l0,-0.34l0.1,0a0.22,0.22 0 0 1 0.23,0.22l0,0.12a0.86,0.86 0 0 1 0.87,0.87l-0.31,0a0.18,0.18 0 0 1 -0.18,-0.13c0,-0.15 -0.14,-0.25 -0.38,-0.29l0,0.76c0.52,0.11 0.87,0.4 0.89,0.81c0.03,0.64 -0.36,0.84 -0.89,0.91z"/>
  <path id="svg_7" fill="#0098c5" d="m54,52.41l0,1.18c0.39,-0.06 0.59,-0.26 0.59,-0.51s-0.14,-0.57 -0.59,-0.67z"/>
  <path id="svg_8" fill="#0098c5" d="m52.91,50.75a0.73,0.73 0 0 0 0.57,0.58l0,-1.18a0.62,0.62 0 0 0 -0.57,0.6z"/>
  <path id="svg_9" fill="#0098c5" d="m53.77,48.09a3.76,3.76 0 1 0 3.76,3.76a3.76,3.76 0 0 0 -3.76,-3.76zm0.23,6.28l0,0.55l-0.17,0a0.39,0.39 0 0 1 -0.39,-0.39l0,-0.17a1.49,1.49 0 0 1 -1.44,-1.47l0.6,0a0.31,0.31 0 0 1 0.3,0.22a0.76,0.76 0 0 0 0.6,0.46l0,-1.26a1.72,1.72 0 0 1 -1.5,-1.55c0,-0.69 0.37,-1.3 1.5,-1.38l0,-0.59l0.18,0a0.39,0.39 0 0 1 0.38,0.39l0,0.2a1.47,1.47 0 0 1 1.48,1.49l-0.54,0a0.32,0.32 0 0 1 -0.31,-0.23c-0.07,-0.25 -0.23,-0.42 -0.65,-0.49l0,1.29c0.88,0.2 1.48,0.69 1.51,1.39c0.05,1.07 -0.55,1.48 -1.55,1.54z"/>
  <path id="svg_10" fill="#0098c5" d="m54.38,16.6l0,0.4c0.14,0 0.21,-0.1 0.21,-0.19s-0.06,-0.17 -0.21,-0.21z"/>
  <path id="svg_11" fill="#0098c5" d="m54,16a0.25,0.25 0 0 0 0.21,0.21l0,-0.43c-0.15,0.03 -0.21,0.09 -0.21,0.22z"/>
  <path id="svg_12" fill="#0098c5" d="m54.28,15a1.36,1.36 0 1 0 1.36,1.36a1.36,1.36 0 0 0 -1.36,-1.36zm0.1,2.27l0,0.2l-0.06,0a0.14,0.14 0 0 1 -0.14,-0.14l0,-0.06a0.54,0.54 0 0 1 -0.55,-0.54l0.22,0a0.13,0.13 0 0 1 0.11,0.08a0.27,0.27 0 0 0 0.22,0.17l0,-0.46c-0.25,-0.06 -0.55,-0.22 -0.55,-0.56s0.14,-0.47 0.55,-0.5l0,-0.21l0.06,0a0.14,0.14 0 0 1 0.14,0.14l0,0.08a0.52,0.52 0 0 1 0.53,0.53l-0.19,0a0.12,0.12 0 0 1 -0.11,-0.08c0,-0.09 -0.08,-0.16 -0.23,-0.18l0,0.47c0.32,0.07 0.53,0.25 0.55,0.5s-0.22,0.58 -0.55,0.6l0,-0.04z"/>
  <path id="svg_13" fill="#069" d="m58.2,59.06l0,0.42c0.14,0 0.21,-0.09 0.21,-0.18s-0.06,-0.21 -0.21,-0.24z"/>
  <path id="svg_14" fill="#069" d="m57.79,58.46c0,0.08 0.09,0.17 0.21,0.21l0,-0.43a0.22,0.22 0 0 0 -0.21,0.22z"/>
  <path id="svg_15" fill="#069" d="m58.1,57.5a1.36,1.36 0 1 0 1.36,1.36a1.36,1.36 0 0 0 -1.36,-1.36zm0.1,2.26l0,0.24l-0.06,0a0.14,0.14 0 0 1 -0.14,-0.14l0,-0.06a0.55,0.55 0 0 1 -0.55,-0.53l0.22,0a0.12,0.12 0 0 1 0.11,0.08a0.27,0.27 0 0 0 0.22,0.17l0,-0.52c-0.25,-0.06 -0.55,-0.23 -0.55,-0.56s0.14,-0.47 0.55,-0.5l0,-0.21l0.06,0a0.14,0.14 0 0 1 0.14,0.14l0,0.13a0.53,0.53 0 0 1 0.54,0.54l-0.19,0a0.14,0.14 0 0 1 -0.12,-0.09c0,-0.09 -0.08,-0.15 -0.23,-0.17l0,0.46c0.32,0.07 0.54,0.25 0.55,0.51s-0.22,0.49 -0.55,0.51z"/>
  <path id="svg_16" fill="#0098c5" d="m45.52,26.3l0,0.33c0.11,0 0.17,-0.07 0.17,-0.14s-0.06,-0.16 -0.17,-0.19z"/>
  <path id="svg_17" fill="#0098c5" d="m45.2,25.83c0,0.06 0.07,0.13 0.16,0.16l0,-0.33a0.17,0.17 0 0 0 -0.16,0.17z"/>
  <path id="svg_18" fill="#0098c5" d="m45.44,25.07a1.07,1.07 0 1 0 1.07,1.07a1.07,1.07 0 0 0 -1.07,-1.07zm0.08,1.78l0,0.15l-0.05,0a0.11,0.11 0 0 1 -0.11,-0.11l0,0a0.43,0.43 0 0 1 -0.43,-0.42l0.17,0a0.1,0.1 0 0 1 0.09,0.06a0.23,0.23 0 0 0 0.17,0.14l0,-0.36c-0.19,-0.05 -0.43,-0.18 -0.43,-0.44s0.11,-0.37 0.43,-0.39l0,-0.17l0,0a0.11,0.11 0 0 1 0.11,0.11l0,0.06a0.41,0.41 0 0 1 0.42,0.42l-0.15,0a0.1,0.1 0 0 1 -0.09,-0.07c0,-0.07 -0.06,-0.12 -0.18,-0.14l0,0.31c0.25,0.06 0.42,0.19 0.43,0.39s-0.12,0.45 -0.38,0.46z"/>
  <path id="svg_19" fill="url(#linear-gradient)" d="m61.13,35.47l0,-0.39c0.13,0 0.17,0.07 0.19,0.15a0.14,0.14 0 0 0 0.1,0.07l0.15,0a0.44,0.44 0 0 0 -0.44,-0.45l0,-0.06a0.11,0.11 0 0 0 -0.11,-0.11l-0.02,0l0,0.17c-0.33,0 -0.45,0.21 -0.45,0.42s0.25,0.41 0.45,0.46l0,0.38c-0.11,0 -0.16,-0.09 -0.17,-0.14a0.11,0.11 0 0 0 -0.1,-0.07l-0.18,0a0.45,0.45 0 0 0 0.45,0.44l0,0a0.12,0.12 0 0 0 0.12,0.12l0.05,0l0,-0.17c0.27,0 0.47,-0.13 0.45,-0.46s-0.22,-0.31 -0.49,-0.36zm-0.17,0a0.25,0.25 0 0 1 -0.17,-0.18a0.19,0.19 0 0 1 0.17,-0.18l0,0.36zm0.17,0.67l0,-0.35a0.2,0.2 0 0 1 0.18,0.2c0,0.01 -0.06,0.1 -0.18,0.12l0,0.03z"/>
  <path id="svg_20" fill="url(#linear-gradient-2)" d="m56.94,41.23l0,-0.81c0.26,0 0.36,0.15 0.4,0.31a0.22,0.22 0 0 0 0.2,0.14l0.33,0a0.93,0.93 0 0 0 -0.93,-0.94l0,-0.12a0.25,0.25 0 0 0 -0.25,-0.25l-0.11,0l0,0.37c-0.71,0.06 -0.95,0.44 -0.95,0.88s0.52,0.86 0.95,1l0,0.8a0.44,0.44 0 0 1 -0.37,-0.3a0.21,0.21 0 0 0 -0.19,-0.13l-0.39,0a0.93,0.93 0 0 0 0.95,0.92l0,0.11a0.25,0.25 0 0 0 0.25,0.25l0.11,0l0,-0.35c0.57,0 1,-0.29 1,-1c-0.07,-0.45 -0.45,-0.76 -1,-0.88zm-0.36,-0.06a0.45,0.45 0 0 1 -0.35,-0.37a0.38,0.38 0 0 1 0.35,-0.38l0,0.75zm0.36,1.42l0,-0.74a0.41,0.41 0 0 1 0.37,0.42c0,0.16 -0.13,0.28 -0.37,0.32z"/>
  <path id="svg_21" fill="url(#linear-gradient-3)" d="m60.78,24.56l0.22,0l0,-0.56c0.91,-0.05 1.57,-0.46 1.52,-1.55c0,-0.71 -0.64,-1.2 -1.52,-1.4l0,-1.3a0.69,0.69 0 0 1 0.65,0.5a0.32,0.32 0 0 0 0.31,0.22l0.52,0a1.46,1.46 0 0 0 -1.48,-1.47l0,-0.2a0.38,0.38 0 0 0 -0.2,-0.34l0,6.1l-0.02,0zm0.22,-2.56c0.41,0.11 0.59,0.34 0.59,0.67s-0.21,0.46 -0.59,0.52l0,-1.19z"/>
  <path id="svg_22" fill="url(#linear-gradient-4)" d="m55.82,31.92l0,0.08a0.15,0.15 0 0 0 0.15,0.14l0.03,0l0,-0.2c0.34,0 0.58,-0.17 0.56,-0.57s-0.23,-0.44 -0.56,-0.52l0,-0.47c0.15,0 0.21,0.08 0.24,0.18a0.11,0.11 0 0 0 0.11,0.08l0.2,0a0.55,0.55 0 0 0 -0.55,-0.55l0,-0.09a0.14,0.14 0 0 0 -0.14,-0.14l-0.07,0l0,0.21c-0.42,0 -0.56,0.26 -0.56,0.52s0.31,0.5 0.56,0.57l0,0.46a0.27,0.27 0 0 1 -0.22,-0.17a0.13,0.13 0 0 0 -0.11,-0.08l-0.23,0a0.57,0.57 0 0 0 0.59,0.55zm0.18,-0.72a0.24,0.24 0 0 1 0.22,0.24c0,0.1 -0.08,0.17 -0.22,0.19l0,-0.43zm-0.42,-0.62a0.23,0.23 0 0 1 0.21,-0.22l0,0.44c-0.09,-0.04 -0.18,-0.13 -0.18,-0.22l-0.03,0z"/>
  <path id="svg_23" fill="url(#linear-gradient-5)" d="m91.15,26.81l-11,0l0,-11a3.26,3.26 0 0 0 -3.26,-3.26l-12.89,0a3.26,3.26 0 0 0 -3.26,3.26l0,1.86a3.78,3.78 0 0 1 0,7.55l0,1.55l-11,0a3.26,3.26 0 0 0 -3.26,3.26l0,0.07a6.39,6.39 0 0 1 0,12.78l0,0.12a3.26,3.26 0 0 0 3.26,3.26l11,0l0,11a3.26,3.26 0 0 0 3.26,3.21l12.93,0a3.26,3.26 0 0 0 3.26,-3.26l0,-11l11,0a3.26,3.26 0 0 0 3.22,-3.21l0,-12.93a3.26,3.26 0 0 0 -3.26,-3.26zm-35.22,2.79a1.39,1.39 0 1 1 -1.39,1.4a1.39,1.39 0 0 1 1.39,-1.4zm0.83,14.27a2.38,2.38 0 1 1 2.37,-2.38a2.38,2.38 0 0 1 -2.37,2.38zm4.29,-7.15a1.13,1.13 0 1 1 1.12,-1.13a1.13,1.13 0 0 1 -1.12,1.13zm2.76,18.78a1.39,1.39 0 1 1 1.39,-1.39a1.39,1.39 0 0 1 -1.39,1.39z"/>
  <path id="svg_24" fill="url(#linear-gradient-6)" d="m46.71,41.73l0.29,0l0,-0.93c1.54,-0.09 2.65,-0.79 2.57,-2.63c-0.06,-1.19 -1.07,-2 -2.57,-2.36l0,-2.19c0.7,0.11 1,0.41 1.09,0.84a0.55,0.55 0 0 0 0.53,0.38l0.89,0a2.5,2.5 0 0 0 -2.51,-2.51l0,-0.33a0.66,0.66 0 0 0 -0.47,-0.63l0,10.33a0.47,0.47 0 0 0 0.18,0.03zm0.3,-4.25c0.69,0.17 1,0.57 1,1.13s-0.35,0.77 -1,0.87l0,-2z"/>
  <path id="svg_25" fill="url(#linear-gradient-7)" d="m63.91,54l0,-0.47c0.15,0 0.21,0.08 0.24,0.18a0.11,0.11 0 0 0 0.11,0.08l0.2,0a0.55,0.55 0 0 0 -0.55,-0.55l0,-0.07a0.14,0.14 0 0 0 -0.14,-0.14l-0.07,0l0,0.21c-0.42,0 -0.56,0.26 -0.56,0.51s0.31,0.51 0.56,0.58l0,0.46a0.27,0.27 0 0 1 -0.22,-0.17a0.12,0.12 0 0 0 -0.11,-0.08l-0.23,0a0.57,0.57 0 0 0 0.56,0.55l0,0.06a0.15,0.15 0 0 0 0.15,0.14l0.06,0l0,-0.29c0.34,0 0.58,-0.17 0.56,-0.57s-0.23,-0.43 -0.56,-0.43zm-0.21,0c-0.12,0 -0.21,-0.13 -0.21,-0.22a0.23,0.23 0 0 1 0.21,-0.22l0,0.44zm0.21,0.83l0,-0.43a0.24,0.24 0 0 1 0.22,0.24c0,0.02 -0.08,0.09 -0.22,0.11l0,0.08z"/>
  <path id="svg_26" fill="url(#linear-gradient-8)" d="m45.09,34.66c0,0.4 0.42,0.82 1,1l0,-2a1,1 0 0 0 -1,1z"/>
  <path id="svg_27" fill="url(#linear-gradient-9)" d="m46.05,41.07l0,-0.29a2.51,2.51 0 0 1 -2.55,-2.49l1,0a0.55,0.55 0 0 1 0.52,0.37a1.26,1.26 0 0 0 1,0.79l0,-2.15c-1.16,-0.29 -2.56,-1.06 -2.55,-2.62c0,-1.18 0.63,-2.21 2.55,-2.36l0,-1l0.3,0a0.58,0.58 0 0 1 0.19,0l0,-1.18l0,0a6.39,6.39 0 1 0 0,12.78l0,0l0,-1.22a0.65,0.65 0 0 1 -0.46,-0.63z"/>
  <path id="svg_28" fill="url(#linear-gradient-10)" d="m59.82,20.38a0.76,0.76 0 0 0 0.57,0.58l0,-1.19a0.62,0.62 0 0 0 -0.57,0.61z"/>
  <path id="svg_29" fill="url(#linear-gradient-11)" d="m60.39,24.17l0,-0.17a1.5,1.5 0 0 1 -1.51,-1.48l0.61,0a0.33,0.33 0 0 1 0.3,0.22a0.75,0.75 0 0 0 0.6,0.47l0,-1.27c-0.68,-0.17 -1.51,-0.63 -1.51,-1.55c0,-0.7 0.37,-1.31 1.51,-1.4l0,-0.59l0.18,0a0.33,0.33 0 0 1 0.19,0.06l0,-0.75l-0.08,0a3.78,3.78 0 0 0 0,7.56l0.08,0l0,-0.7a0.39,0.39 0 0 1 -0.37,-0.4z"/>

 </g>
</svg>