<svg id="Layer_1" data-name="Layer 1" xmlns="http://www.w3.org/2000/svg" viewBox="0 0 90.83 32.79"><path d="M15.91,22.4A19.67,19.67,0,0,1,15.09,25a16.07,16.07,0,0,1-2.92.39c-4.44,0-6.33-2.76-6.33-5.78,0-3.4,2.5-5.87,6.54-5.87a21.43,21.43,0,0,1,3,.34c0,.88.16,1.93.24,2.63l-.3.07a3.12,3.12,0,0,0-1.74-2.32A3.67,3.67,0,0,0,12,14.16c-2.58,0-3.68,2.3-3.68,5.13,0,3.32,1.55,5.68,4.09,5.68,1.6,0,2.52-1,3.28-2.67Z" fill="#069"/><path d="M22.16,25.35a1.29,1.29,0,0,1-1-.34,1.59,1.59,0,0,1-.4-.76,5.88,5.88,0,0,1-1.73,1.1,2.06,2.06,0,0,1-2.05-2,1.43,1.43,0,0,1,1.15-1.49,19.41,19.41,0,0,0,2.6-1v-1c0-1.06-.66-1.56-1.15-1.56a.83.83,0,0,0-.71.38,3.43,3.43,0,0,0-.39,1.13c-.09.34-.21.47-.45.47a.87.87,0,0,1-.89-.79c0-.19.15-.4.5-.62a8.68,8.68,0,0,1,2.59-1.17,2.44,2.44,0,0,1,1.53.48,2.5,2.5,0,0,1,.87,2.23v2.95c0,.71.26.95.57.95a1.07,1.07,0,0,0,.39-.07l.09.27Zm-1.39-4.13c-.26.13-.54.22-.9.41-.63.34-.92.65-.92,1.25,0,.95.51,1.34,1,1.34a1.13,1.13,0,0,0,.79-.27C20.75,23,20.77,22.21,20.77,21.22Z" fill="#069"/><path d="M28.93,19.77c-.34-1-.87-1.73-1.81-1.73a1,1,0,0,0-1,1c0,.74.52,1.06,1.22,1.46,1.22.67,2.11,1.2,2.11,2.42a2.59,2.59,0,0,1-2.83,2.4A5.84,5.84,0,0,1,24.73,25c0-.34-.15-1.32-.24-2l.22-.05c.38,1.12,1.14,2,2.18,2a.94.94,0,0,0,1-1c0-.53-.17-1-1.29-1.65-.68-.39-1.95-1.06-1.95-2.38s1-2.25,2.69-2.27a14.11,14.11,0,0,1,1.65.19c0,.58.14,1.54.2,1.85Z" fill="#069"/><path d="M34.72,25.15v-.28c.87-.19.89-.31.89-1.3V20.34c0-1.2-.53-1.66-1.24-1.66a1.87,1.87,0,0,0-1.2.44v4.45c0,1,0,1.13.93,1.3v.28H30.24v-.28c.91-.17,1-.26,1-1.42V15.36c0-1.3-.05-1.39-.94-1.61v-.24a14,14,0,0,0,3-.58c0,.13-.07,1.06-.07,2.24v3.61a3.28,3.28,0,0,1,2.25-1.1c1.32,0,2.15.79,2.15,2.66v3.11c0,1.15,0,1.25.82,1.42v.28Z" fill="#069"/><path d="M49.36,22.4A21.2,21.2,0,0,1,48.53,25a16.07,16.07,0,0,1-2.92.39c-4.44,0-6.33-2.76-6.33-5.78,0-3.4,2.51-5.87,6.54-5.87a21.63,21.63,0,0,1,3,.34c0,.88.15,1.93.24,2.63l-.31.07a3.09,3.09,0,0,0-1.73-2.32,3.75,3.75,0,0,0-1.67-.31c-2.57,0-3.67,2.3-3.67,5.13,0,3.32,1.54,5.68,4.08,5.68,1.6,0,2.53-1,3.28-2.67Z" fill="#0098c5"/><path d="M50.19,25.15v-.28c.91-.15,1-.24,1-1.56V15.12c0-1.06-.06-1.16-.91-1.37v-.24a13.91,13.91,0,0,0,2.93-.58c0,.27-.07.89-.07,2.35v8c0,1.32,0,1.39.91,1.56v.28Z" fill="#0098c5"/><path d="M54.74,25.15v-.28c.91-.15.95-.24.95-1.56V19.84c0-1-.06-1.06-.76-1.3V18.3a12.64,12.64,0,0,0,2.75-.62c0,.36,0,1.34,0,2v3.62c0,1.27.09,1.37,1,1.56v.28Zm1.79-8.95a1.08,1.08,0,1,1,1.1-1.08A1,1,0,0,1,56.53,16.2Z" fill="#0098c5"/><path d="M63.79,25.15v-.28c.82-.12.85-.27.85-1.71V20.39c0-1.23-.55-1.59-1.15-1.59a2,2,0,0,0-1.3.48v4.18c0,1.21.09,1.22.89,1.41v.28H59.24v-.28c.89-.2,1-.29,1-1.58V19.74c0-.86-.12-1-.79-1.2v-.22a13.33,13.33,0,0,0,2.78-.67c0,.41,0,.84,0,1.25.41-.28.69-.5,1-.7a2.16,2.16,0,0,1,1.31-.52c1.44,0,2.09,1.06,2.09,2.63v3.14c0,1.2.07,1.27.82,1.42v.28Z" fill="#0098c5"/><path d="M68.21,25.15v-.28c.91-.15,1-.24,1-1.56V19.84c0-1-.06-1.06-.76-1.3V18.3a12.64,12.64,0,0,0,2.75-.62c0,.36,0,1.34,0,2v3.62c0,1.27.09,1.37,1,1.56v.28ZM70,16.2a1.08,1.08,0,1,1,1.1-1.08A1,1,0,0,1,70,16.2Z" fill="#0098c5"/><path d="M79.21,23.52a3.9,3.9,0,0,1-2.83,1.83A3.37,3.37,0,0,1,73,21.83a3.81,3.81,0,0,1,1.65-3.1,4.83,4.83,0,0,1,2.74-1.05,2.57,2.57,0,0,1,1.36.38c.2.17.32.29.32.5a1,1,0,0,1-.72.85c-.07,0-.15,0-.32-.17a2.76,2.76,0,0,0-1.86-.84c-.65,0-1.3.41-1.3,2.4,0,2.29,1.37,3.21,2.38,3.21a2.47,2.47,0,0,0,1.86-.7Z" fill="#0098c5"/><path d="M84.45,19.77c-.35-1-.88-1.73-1.82-1.73a1,1,0,0,0-1,1c0,.74.52,1.06,1.22,1.46C84.1,21.2,85,21.73,85,23a2.59,2.59,0,0,1-2.83,2.4A5.84,5.84,0,0,1,80.24,25c0-.34-.15-1.32-.24-2l.22-.05c.38,1.12,1.14,2,2.18,2a.94.94,0,0,0,1-1c0-.53-.17-1-1.29-1.65-.68-.39-2-1.06-2-2.38s1-2.25,2.69-2.27a14.11,14.11,0,0,1,1.65.19,16.29,16.29,0,0,0,.21,1.85Z" fill="#0098c5"/><path d="M9,5.48a4,4,0,0,1,2.75.84,2.74,2.74,0,0,1,.87,2.15,3.18,3.18,0,0,1-1.18,2.66A4.07,4.07,0,0,1,8.89,12H6.14V11.8c.7-.12.79-.18.79-1.08v-4c0-.9-.09-1-.79-1.08V5.48Zm-.86,5c0,.81.27,1.15,1.13,1.15,1.28,0,2-1,2-3a3.29,3.29,0,0,0-.79-2.35,2,2,0,0,0-1.54-.57,1.06,1.06,0,0,0-.68.15c-.1.08-.11.25-.11.59Z" fill="#069"/><path d="M15.65,12H13.34V11.8c.51-.09.54-.13.54-.86V8.82c0-.52-.08-.58-.45-.7V8A6.5,6.5,0,0,0,15,7.61c0,.15,0,.68,0,1,.25-.46.66-1,1.15-1a.51.51,0,0,1,.57.5.94.94,0,0,1-.5.75c-.13,0-.18,0-.25,0s-.28-.3-.46-.3-.34.08-.51.43v2c0,.73.08.75.64.86Z" fill="#069"/></svg>