<svg id="Layer_1" data-name="Layer 1" xmlns="http://www.w3.org/2000/svg" viewBox="0 0 174.65 130.81"><path d="M63.08,22.33v.9c.29,0,.45-.19.45-.39S63.39,22.41,63.08,22.33Z" fill="#fff"/><path d="M62.21,21.05c0,.18.19.37.43.45v-.92A.47.47,0,0,0,62.21,21.05Z" fill="#fff"/><path d="M62.86,19a2.9,2.9,0,1,0,2.9,2.9A2.9,2.9,0,0,0,62.86,19Zm.22,4.83v.43h-.14a.31.31,0,0,1-.3-.3v-.13a1.15,1.15,0,0,1-1.15-1.14H62a.24.24,0,0,1,.23.17.58.58,0,0,0,.46.36v-1a1.32,1.32,0,0,1-1.15-1.19c0-.54.28-1,1.15-1.07v-.45h.14a.29.29,0,0,1,.3.3V20a1.15,1.15,0,0,1,1.14,1.15h-.41a.23.23,0,0,1-.23-.17c-.06-.2-.18-.33-.5-.38v1c.68.15,1.14.53,1.16,1.07C64.28,23.48,63.78,23.79,63.08,23.83Z" fill="#fff"/><path d="M55.56,55.25v.91c.3,0,.45-.2.46-.4S55.88,55.33,55.56,55.25Z" fill="#fff"/><path d="M54.69,54c0,.18.19.37.44.45v-.91A.48.48,0,0,0,54.69,54Z" fill="#fff"/><path d="M55.35,51.92a2.9,2.9,0,1,0,2.89,2.9A2.9,2.9,0,0,0,55.35,51.92Zm.21,4.84v.42h-.13a.3.3,0,0,1-.3-.3v-.13A1.14,1.14,0,0,1,54,55.62h.46a.25.25,0,0,1,.24.16.55.55,0,0,0,.46.36v-1A1.32,1.32,0,0,1,54,54c0-.53.29-1,1.16-1.07v-.45h.13a.29.29,0,0,1,.3.3v.15a1.14,1.14,0,0,1,1.14,1.15h-.4a.25.25,0,0,1-.24-.17.53.53,0,0,0-.5-.38v1c.68.15,1.14.52,1.17,1.07C56.76,56.4,56.26,56.71,55.56,56.76Z" fill="#fff"/><path d="M66.73,61.13v1.54c.5-.07.77-.33.77-.67S67.26,61.27,66.73,61.13Z" fill="#fff"/><path d="M65.25,59c0,.31.33.63.74.76V58.17A.79.79,0,0,0,65.25,59Z" fill="#fff"/><path d="M66.37,55.47a4.93,4.93,0,1,0,4.92,4.93A4.93,4.93,0,0,0,66.37,55.47Zm.36,8.23v.71H66.5A.51.51,0,0,1,66,63.9v-.22a1.94,1.94,0,0,1-2-1.92h.79a.42.42,0,0,1,.4.28,1,1,0,0,0,.78.61V61c-.89-.23-2-.82-2-2,0-.91.49-1.7,2-1.81v-.77h.23a.51.51,0,0,1,.51.51v.26a1.93,1.93,0,0,1,1.94,2H68a.44.44,0,0,1-.41-.3c-.09-.33-.3-.56-.84-.64v1.69c1.15.25,1.94.9,2,1.82C68.77,63.09,67.92,63.62,66.73,63.7Z" fill="#fff"/><path d="M67.17,14.2v.56c.18,0,.28-.12.28-.24A.32.32,0,0,0,67.17,14.2Z" fill="#fff"/><path d="M66.64,13.41a.34.34,0,0,0,.26.28v-.56C66.76,13.16,66.63,13.25,66.64,13.41Z" fill="#fff"/><path d="M67,12.15a1.79,1.79,0,1,0,1.78,1.79A1.78,1.78,0,0,0,67,12.15Zm.13,3v.26h-.08a.2.2,0,0,1-.19-.19v-.08a.7.7,0,0,1-.71-.69h.29a.15.15,0,0,1,.14.1.35.35,0,0,0,.28.22v-.6c-.32-.08-.71-.3-.71-.73s.18-.62.71-.66v-.28H67a.19.19,0,0,1,.18.19v.09a.7.7,0,0,1,.7.71h-.25a.14.14,0,0,1-.14-.1.31.31,0,0,0-.31-.23v.61c.42.09.7.32.72.65C67.91,14.91,67.6,15.1,67.17,15.13Z" fill="#fff"/><path d="M72.18,69.84v.56c.18,0,.28-.12.28-.24A.32.32,0,0,0,72.18,69.84Z" fill="#fff"/><path d="M71.64,69.06c0,.11.12.23.27.27v-.56A.29.29,0,0,0,71.64,69.06Z" fill="#fff"/><path d="M72.05,67.8a1.78,1.78,0,1,0,1.78,1.78A1.77,1.77,0,0,0,72.05,67.8Zm.13,3V71H72.1a.18.18,0,0,1-.19-.19v-.08a.7.7,0,0,1-.71-.69h.29a.15.15,0,0,1,.14.1.35.35,0,0,0,.28.22v-.6a.81.81,0,0,1-.71-.73c0-.33.17-.62.71-.66v-.27H72a.18.18,0,0,1,.18.18v.09a.7.7,0,0,1,.7.71h-.25a.18.18,0,0,1-.15-.11c0-.12-.11-.2-.3-.23v.61c.42.09.7.32.71.66C72.92,70.55,72.61,70.74,72.18,70.77Z" fill="#fff"/><path d="M55.56,26.91v.44c.14,0,.22-.1.22-.19S55.71,27,55.56,26.91Z" fill="#fff"/><path d="M55.14,26.29c0,.09.09.18.21.22v-.44A.22.22,0,0,0,55.14,26.29Z" fill="#fff"/><path d="M55.45,25.3a1.4,1.4,0,1,0,1.4,1.4A1.4,1.4,0,0,0,55.45,25.3Zm.11,2.34v.2h-.07a.15.15,0,0,1-.14-.15v-.06a.55.55,0,0,1-.56-.54H55a.13.13,0,0,1,.12.08.27.27,0,0,0,.22.17v-.47a.63.63,0,0,1-.56-.58c0-.25.14-.48.56-.51v-.22h.06a.15.15,0,0,1,.15.15v.07a.55.55,0,0,1,.55.55h-.2a.11.11,0,0,1-.11-.08c0-.1-.09-.16-.24-.19v.48c.33.08.55.26.56.52S55.89,27.61,55.56,27.64Z" fill="#fff"/><path d="M76,38.92v-.5a.25.25,0,0,1,.25.19.14.14,0,0,0,.12.09h.21a.58.58,0,0,0-.58-.58V38a.15.15,0,0,0-.15-.15H75.8v.23c-.44,0-.59.27-.59.54a.68.68,0,0,0,.59.61v.49a.27.27,0,0,1-.23-.18.14.14,0,0,0-.12-.09h-.24a.58.58,0,0,0,.59.58v.07a.15.15,0,0,0,.15.15H76v-.22c.36,0,.61-.18.59-.6S76.37,39,76,38.92Zm-.22,0a.28.28,0,0,1-.22-.23.25.25,0,0,1,.22-.24Zm.22.88v-.46a.26.26,0,0,1,.23.26C76.25,39.67,76.17,39.75,76,39.77Z" fill="#fff"/><path d="M70.52,46.48V45.41a.56.56,0,0,1,.54.41.26.26,0,0,0,.25.18h.44a1.22,1.22,0,0,0-1.23-1.23v-.17a.32.32,0,0,0-.32-.32h-.14v.49c-.94.07-1.25.57-1.25,1.14a1.43,1.43,0,0,0,1.25,1.28v1a.6.6,0,0,1-.5-.38.26.26,0,0,0-.25-.18h-.5a1.23,1.23,0,0,0,1.25,1.21V49a.32.32,0,0,0,.32.33h.14V48.9c.75,0,1.29-.38,1.25-1.27C71.75,47,71.25,46.64,70.52,46.48Zm-.46-.09c-.26-.07-.47-.28-.47-.47a.5.5,0,0,1,.47-.5Zm.46,1.87v-1a.54.54,0,0,1,.49.55C71,48.05,70.84,48.21,70.52,48.26Z" fill="#fff"/><path d="M75.56,24.63h.23v-.72c1.2-.07,2.06-.61,2-2,0-.93-.83-1.58-2-1.84V18.35c.55.08.76.31.85.64a.42.42,0,0,0,.41.3h.69a1.94,1.94,0,0,0-1.95-2v-.26a.5.5,0,0,0-.26-.45v8Zm.23-3.3c.54.14.78.44.78.88s-.27.6-.78.67Z" fill="#fff"/><path d="M69.06,34.27v.08a.18.18,0,0,0,.19.19h.08v-.26c.44,0,.76-.23.74-.75,0-.35-.31-.58-.74-.68v-.62c.2,0,.28.11.32.23a.15.15,0,0,0,.15.11h.25a.71.71,0,0,0-.72-.72v-.1a.18.18,0,0,0-.18-.19h-.09v.28c-.55,0-.73.34-.73.68s.4.66.73.75v.61a.35.35,0,0,1-.29-.23.15.15,0,0,0-.15-.1h-.29A.72.72,0,0,0,69.06,34.27Zm.27-.94c.2.05.29.16.29.32s-.1.22-.29.25Zm-.54-.81c0-.17.12-.26.27-.29v.57A.34.34,0,0,1,68.79,32.52Z" fill="#fff"/><path d="M115.36,27.58H101V13.22a4.28,4.28,0,0,0-4.28-4.28H79.8a4.28,4.28,0,0,0-4.27,4.28v2.43a5,5,0,0,1,0,9.9v2H61.17a4.28,4.28,0,0,0-4.28,4.28V32a8.37,8.37,0,1,1,0,16.74v.09a4.28,4.28,0,0,0,4.28,4.27H75.53V67.42a4.27,4.27,0,0,0,4.27,4.27H96.72A4.28,4.28,0,0,0,101,67.42V53.05h14.36a4.28,4.28,0,0,0,4.28-4.27V31.86A4.28,4.28,0,0,0,115.36,27.58ZM69.2,31.23a1.83,1.83,0,1,1-1.83,1.83A1.82,1.82,0,0,1,69.2,31.23Zm1.09,18.7a3.11,3.11,0,1,1,3.11-3.11A3.1,3.1,0,0,1,70.29,49.93Zm5.62-9.37a1.47,1.47,0,1,1,1.47-1.47A1.47,1.47,0,0,1,75.91,40.56Zm3.62,24.62a1.83,1.83,0,1,1,1.82-1.82A1.83,1.83,0,0,1,79.53,65.18Z" fill="#fff"/><path d="M57.12,47.13h.39V45.91c2-.12,3.47-1,3.36-3.44-.07-1.56-1.4-2.66-3.36-3.09V36.51c.92.14,1.28.53,1.44,1.09a.7.7,0,0,0,.68.5l1.17,0a3.27,3.27,0,0,0-3.29-3.31v-.45a.85.85,0,0,0-.62-.82V47.1A.91.91,0,0,0,57.12,47.13Zm.39-5.57c.91.23,1.32.74,1.31,1.48,0,.57-.46,1-1.31,1.14Z" fill="#fff"/><path d="M79.66,63.15v-.62c.2,0,.28.11.31.23a.16.16,0,0,0,.15.11h.26a.71.71,0,0,0-.72-.72v-.1a.18.18,0,0,0-.19-.19h-.08v.28c-.55.05-.73.34-.73.68s.4.66.73.75v.61A.35.35,0,0,1,79.1,64a.15.15,0,0,0-.15-.1h-.29a.71.71,0,0,0,.73.71v.08a.18.18,0,0,0,.19.19h.08v-.26c.44,0,.76-.23.73-.75C80.38,63.48,80.09,63.25,79.66,63.15Zm-.27,0a.34.34,0,0,1-.28-.28.3.3,0,0,1,.28-.29Zm.27,1.1v-.57c.2,0,.29.16.29.32S79.85,64.17,79.66,64.2Z" fill="#fff"/><path d="M55,37.87c0,.52.56,1.07,1.27,1.29V36.52A1.37,1.37,0,0,0,55,37.87Z" fill="#fff"/><path d="M56.26,46.27v-.38c-3.46-.37-3.35-3.27-3.35-3.27h1.34a.71.71,0,0,1,.67.48,1.66,1.66,0,0,0,1.34,1V41.33c-1.52-.38-3.36-1.4-3.35-3.44,0-1.54.82-2.9,3.35-3.09V33.5h.39a1,1,0,0,1,.24,0V32h0a8.37,8.37,0,1,0,0,16.74h0V47.1A.86.86,0,0,1,56.26,46.27Z" fill="#fff"/><path d="M74.3,19.15a1,1,0,0,0,.75.76V18.35A.82.82,0,0,0,74.3,19.15Z" fill="#fff"/><path d="M75.05,24.12V23.9a2,2,0,0,1-2-1.94h.79a.43.43,0,0,1,.4.29,1,1,0,0,0,.79.61V21.2a2.28,2.28,0,0,1-2-2c0-.91.49-1.71,2-1.83v-.77h.23a.52.52,0,0,1,.25.07v-1h-.1a5,5,0,1,0,0,9.91h.1v-.92A.51.51,0,0,1,75.05,24.12Z" fill="#fff"/><path d="M30.81,99.67a36.48,36.48,0,0,1-1.59,5,29.33,29.33,0,0,1-5.63.76c-8.57,0-12.21-5.33-12.21-11.15C11.38,87.75,16.21,83,24,83a39.09,39.09,0,0,1,5.86.67c.07,1.68.3,3.7.46,5.06l-.59.13c-.66-2.35-1.49-3.61-3.34-4.47a7.11,7.11,0,0,0-3.22-.59c-5,0-7.08,4.43-7.08,9.9,0,6.39,3,11,7.88,11,3.08,0,4.87-1.86,6.32-5.17Z" fill="#fff"/><path d="M42.86,105.36A2.49,2.49,0,0,1,41,104.7a3.05,3.05,0,0,1-.76-1.46c-1.06.83-2.75,2.12-3.34,2.12A4,4,0,0,1,33,101.42a2.78,2.78,0,0,1,2.22-2.88c1.78-.66,4.2-1.25,5-1.85v-2c0-2.06-1.26-3-2.22-3a1.59,1.59,0,0,0-1.36.73,6.92,6.92,0,0,0-.76,2.19c-.17.66-.4.89-.86.89A1.68,1.68,0,0,1,33.26,94c0-.37.29-.76,1-1.19a17.07,17.07,0,0,1,5-2.26,4.75,4.75,0,0,1,2.94.93c1.36,1.06,1.69,2.39,1.69,4.31v5.69c0,1.36.5,1.82,1.09,1.82a2,2,0,0,0,.76-.13l.17.53Zm-2.68-8c-.5.26-1,.43-1.73.79-1.22.66-1.78,1.26-1.78,2.42,0,1.82,1,2.58,1.95,2.58a2.2,2.2,0,0,0,1.52-.53C40.14,100.73,40.18,99.3,40.18,97.39Z" fill="#fff"/><path d="M55.93,94.6c-.66-1.88-1.69-3.34-3.51-3.34a1.83,1.83,0,0,0-1.85,2c0,1.42,1,2,2.35,2.81,2.35,1.29,4.07,2.32,4.07,4.67,0,3.18-3,4.63-5.46,4.63a11.34,11.34,0,0,1-3.71-.69c-.07-.66-.3-2.55-.46-3.84l.43-.1c.73,2.15,2.18,3.94,4.2,3.94a1.81,1.81,0,0,0,1.89-2c0-1-.33-1.93-2.48-3.18-1.33-.76-3.78-2.06-3.78-4.61s2-4.33,5.2-4.37a29.09,29.09,0,0,1,3.18.37,30.72,30.72,0,0,0,.4,3.57Z" fill="#fff"/><path d="M67.09,105v-.53c1.69-.37,1.72-.6,1.72-2.52V95.7c0-2.32-1-3.21-2.38-3.21a3.55,3.55,0,0,0-2.32.86v8.57c0,2,.06,2.19,1.79,2.52V105H58.45v-.53c1.75-.33,1.92-.5,1.92-2.75V86.1c0-2.52-.1-2.69-1.82-3.12v-.46a25.49,25.49,0,0,0,5.69-1.13c0,.27-.13,2.06-.13,4.34v7a6.28,6.28,0,0,1,4.33-2.12c2.55,0,4.14,1.53,4.14,5.14v6c0,2.22.07,2.42,1.59,2.75V105Z" fill="#fff"/><path d="M95.32,99.67a38,38,0,0,1-1.58,5,29.58,29.58,0,0,1-5.63.76c-8.58,0-12.22-5.33-12.22-11.15C75.89,87.75,80.72,83,88.5,83a39.09,39.09,0,0,1,5.86.67c.07,1.68.3,3.7.47,5.06l-.6.13c-.66-2.35-1.49-3.61-3.34-4.47a7.09,7.09,0,0,0-3.21-.59c-5,0-7.09,4.43-7.09,9.9,0,6.39,3,11,7.88,11,3.08,0,4.87-1.86,6.33-5.17Z" fill="#fff"/><path d="M96.94,105v-.53c1.76-.3,1.86-.47,1.86-3V85.63c0-2-.1-2.25-1.76-2.65v-.46a26.25,26.25,0,0,0,5.66-1.13c0,.53-.13,1.73-.13,4.54v15.49c0,2.55.07,2.69,1.75,3V105Z" fill="#fff"/><path d="M105.71,105v-.53c1.76-.3,1.82-.47,1.82-3V94.74c0-1.92-.09-2.06-1.45-2.52v-.46a24.16,24.16,0,0,0,5.3-1.2c0,.7-.07,2.59-.07,3.88v7c0,2.45.16,2.65,1.92,3V105Zm3.45-17.25a2,2,0,0,1-2-2.09,2.06,2.06,0,1,1,4.11,0A2,2,0,0,1,109.16,87.72Z" fill="#fff"/><path d="M123.16,105v-.53c1.59-.24,1.65-.53,1.65-3.31V95.8c0-2.39-1-3.08-2.21-3.08a3.81,3.81,0,0,0-2.52.92v8.08c0,2.32.17,2.35,1.72,2.72V105h-7.41v-.53c1.72-.4,1.92-.57,1.92-3V94.54c0-1.66-.24-1.86-1.53-2.32v-.43a25.48,25.48,0,0,0,5.37-1.29c0,.79-.07,1.62-.07,2.42.8-.53,1.33-1,2-1.36a4.16,4.16,0,0,1,2.52-1c2.78,0,4,2.06,4,5.07v6.06c0,2.32.13,2.45,1.59,2.75V105Z" fill="#fff"/><path d="M131.7,105v-.53c1.75-.3,1.82-.47,1.82-3V94.74c0-1.92-.1-2.06-1.46-2.52v-.46a24,24,0,0,0,5.3-1.2c0,.7-.07,2.59-.07,3.88v7c0,2.45.17,2.65,1.92,3V105Zm3.44-17.25a2,2,0,0,1-2-2.09,2.06,2.06,0,1,1,4.11,0A2,2,0,0,1,135.14,87.72Z" fill="#fff"/><path d="M152.92,101.82c-1.43,2-3.45,3.54-5.47,3.54a6.5,6.5,0,0,1-6.62-6.78,7.39,7.39,0,0,1,3.18-6,9.37,9.37,0,0,1,5.3-2,4.94,4.94,0,0,1,2.61.73c.4.33.63.57.63,1a1.86,1.86,0,0,1-1.39,1.66c-.13,0-.3,0-.63-.33A5.3,5.3,0,0,0,147,92c-1.26,0-2.52.79-2.52,4.63,0,4.4,2.65,6.19,4.6,6.19a4.75,4.75,0,0,0,3.58-1.36Z" fill="#fff"/><path d="M163,94.6c-.66-1.88-1.69-3.34-3.51-3.34a1.83,1.83,0,0,0-1.85,2c0,1.42,1,2,2.35,2.81,2.35,1.29,4.07,2.32,4.07,4.67,0,3.18-3,4.63-5.46,4.63a11.28,11.28,0,0,1-3.71-.69c-.07-.66-.3-2.55-.46-3.84l.43-.1c.72,2.15,2.18,3.94,4.2,3.94a1.81,1.81,0,0,0,1.89-2c0-1-.33-1.93-2.49-3.18-1.32-.76-3.77-2.06-3.77-4.61s2-4.33,5.2-4.37a29.09,29.09,0,0,1,3.18.37,33.44,33.44,0,0,0,.39,3.57Z" fill="#fff"/><path d="M17.53,67a7.72,7.72,0,0,1,5.31,1.62,5.32,5.32,0,0,1,1.69,4.15,6.21,6.21,0,0,1-2.29,5.14,7.87,7.87,0,0,1-5,1.59H12v-.31c1.36-.23,1.53-.34,1.53-2.07V69.42c0-1.73-.17-1.85-1.53-2.08V67Zm-1.65,9.73c0,1.58.52,2.23,2.17,2.23,2.48,0,3.79-1.9,3.79-5.86a6.36,6.36,0,0,0-1.52-4.54,3.84,3.84,0,0,0-3-1.09,2.09,2.09,0,0,0-1.31.28c-.19.16-.21.48-.21,1.14Z" fill="#fff"/><path d="M30.31,79.53H25.85v-.31c1-.17,1-.25,1-1.65v-4.1c0-1-.15-1.11-.87-1.34v-.25a12.45,12.45,0,0,0,3.12-.75c0,.31-.06,1.33-.06,2,.48-.89,1.27-2,2.21-2a1,1,0,0,1,1.1,1,1.81,1.81,0,0,1-1,1.44c-.25.1-.35.06-.48-.08-.35-.32-.54-.57-.89-.57s-.65.15-1,.82v3.81c0,1.4.16,1.44,1.23,1.65Z" fill="#fff"/></svg>